SRRun01_grf
version=1
nRows=24
nColumns=19
inDegrees=no
endheader
time	ground_force_r_vx	ground_force_r_vy	ground_force_r_vz	ground_force_r_px	ground_force_r_py	ground_force_r_pz	ground_force_r_mx	ground_force_r_my	ground_force_r_mz	ground_force_l_vx	ground_force_l_vy	ground_force_l_vz	ground_force_l_px	ground_force_l_py	ground_force_l_pz	ground_force_l_mx	ground_force_l_my	ground_force_l_mz
    147.49900000	   -111.23738962	   1232.03425630	     78.18270718	      0.87024200	      0.00000000	     -0.24354897	      0.00001204	     16.96973987	      0.00005929	      0.00000000	      0.00000000	      0.00000000	      0.00000000	      0.00000000	      0.00000000	      0.00000000	      0.00000000	      0.00000000
    147.50000000	   -104.82642096	   1234.47603635	     67.13139624	      0.86757185	      0.00000000	     -0.24434824	      0.00001136	      1.55011146	      0.00005833	      0.00000000	      0.00000000	      0.00000000	      0.00000000	      0.00000000	      0.00000000	      0.00000000	      0.00000000	      0.00000000
    147.50100000	    -97.46608655	   1237.13173042	     51.59150080	      0.86514272	      0.00000000	     -0.24525549	      0.00001074	    -13.60321419	      0.00005708	      0.00000000	      0.00000000	      0.00000000	      0.00000000	      0.00000000	      0.00000000	      0.00000000	      0.00000000	      0.00000000
    147.50200000	    -89.35719189	   1240.06938455	     32.50178159	      0.86295723	      0.00000000	     -0.24619911	      0.00001021	    -27.26730456	      0.00005559	      0.00000000	      0.00000000	      0.00000000	      0.00000000	      0.00000000	      0.00000000	      0.00000000	      0.00000000	      0.00000000
    147.50300000	    -80.77234963	   1243.32671294	     10.97603572	      0.86100196	      0.00000000	     -0.24711183	      0.00000982	    -38.37762608	      0.00005393	      0.00000000	      0.00000000	      0.00000000	      0.00000000	      0.00000000	      0.00000000	      0.00000000	      0.00000000	      0.00000000
    147.50400000	    -72.04889049	   1246.90253324	    -11.76446540	      0.85924703	      0.00000000	     -0.24793546	      0.00000959	    -46.11450700	      0.00005216	      0.00000000	      0.00000000	      0.00000000	      0.00000000	      0.00000000	      0.00000000	      0.00000000	      0.00000000	      0.00000000
    147.50500000	    -63.57293217	   1250.75162711	    -34.46177055	      0.85764776	      0.00000000	     -0.24862424	      0.00000953	    -49.96570976	      0.00005035	      0.00000000	      0.00000000	      0.00000000	      0.00000000	      0.00000000	      0.00000000	      0.00000000	      0.00000000	      0.00000000
    147.50600000	    -55.75450638	   1254.78412569	    -55.89153952	      0.85614811	      0.00000000	     -0.24914679	      0.00000966	    -49.76028145	      0.00004860	      0.00000000	      0.00000000	      0.00000000	      0.00000000	      0.00000000	      0.00000000	      0.00000000	      0.00000000	      0.00000000
    147.50700000	    -48.99491069	   1258.86996650	    -74.92941306	      0.85468545	      0.00000000	     -0.24948649	      0.00000996	    -45.67168806	      0.00004697	      0.00000000	      0.00000000	      0.00000000	      0.00000000	      0.00000000	      0.00000000	      0.00000000	      0.00000000	      0.00000000
    147.50800000	    -43.64876554	   1262.84829696	    -90.61032432	      0.85319627	      0.00000000	     -0.24964064	      0.00001041	    -38.19099369	      0.00004554	      0.00000000	      0.00000000	      0.00000000	      0.00000000	      0.00000000	      0.00000000	      0.00000000	      0.00000000	      0.00000000
    147.50900000	    -39.98444559	   1266.54093987	   -102.17797263	      0.85162217	      0.00000000	     -0.24961859	      0.00001098	    -28.07337797	      0.00004440	      0.00000000	      0.00000000	      0.00000000	      0.00000000	      0.00000000	      0.00000000	      0.00000000	      0.00000000	      0.00000000
    147.51000000	    -38.14742797	   1269.76832440	   -109.12214349	      0.84991526	      0.00000000	     -0.24943912	      0.00001165	    -16.26361901	      0.00004361	      0.00000000	      0.00000000	      0.00000000	      0.00000000	      0.00000000	      0.00000000	      0.00000000	      0.00000000	      0.00000000
    147.51100000	    -38.13147123	   1272.36592705	   -111.20212486	      0.84804212	      0.00000000	     -0.24912754	      0.00001236	     -3.80806882	      0.00004319	      0.00000000	      0.00000000	      0.00000000	      0.00000000	      0.00000000	      0.00000000	      0.00000000	      0.00000000	      0.00000000
    147.51200000	    -39.76229365	   1274.19934225	   -108.45519817	      0.84598568	      0.00000000	     -0.24871276	      0.00001309	      8.23837083	      0.00004318	      0.00000000	      0.00000000	      0.00000000	      0.00000000	      0.00000000	      0.00000000	      0.00000000	      0.00000000	      0.00000000
    147.51300000	    -42.69755049	   1275.17633631	   -101.18996079	      0.84374485	      0.00000000	     -0.24822482	      0.00001381	     18.90185721	      0.00004355	      0.00000000	      0.00000000	      0.00000000	      0.00000000	      0.00000000	      0.00000000	      0.00000000	      0.00000000	      0.00000000
    147.51400000	    -46.44539020	   1275.25444049	    -89.96484069	      0.84133189	      0.00000000	     -0.24769300	      0.00001448	     27.36827182	      0.00004426	      0.00000000	      0.00000000	      0.00000000	      0.00000000	      0.00000000	      0.00000000	      0.00000000	      0.00000000	      0.00000000
    147.51500000	    -50.40169575	   1274.44295410	    -75.55262437	      0.83876784	      0.00000000	     -0.24714467	      0.00001509	     33.04482767	      0.00004522	      0.00000000	      0.00000000	      0.00000000	      0.00000000	      0.00000000	      0.00000000	      0.00000000	      0.00000000	      0.00000000
    147.51600000	    -53.90351422	   1272.79891355	    -58.89242969	      0.83607688	      0.00000000	     -0.24660454	      0.00001561	     35.60031487	      0.00004634	      0.00000000	      0.00000000	      0.00000000	      0.00000000	      0.00000000	      0.00000000	      0.00000000	      0.00000000	      0.00000000
    147.51700000	    -56.29365569	   1270.41775886	    -41.03151120	      0.83328081	      0.00000000	     -0.24609443	      0.00001603	     34.98170831	      0.00004750	      0.00000000	      0.00000000	      0.00000000	      0.00000000	      0.00000000	      0.00000000	      0.00000000	      0.00000000	      0.00000000
    147.51800000	    -56.98953327	   1267.42077726	    -23.06033452	      0.83039507	      0.00000000	     -0.24563313	      0.00001633	     31.40684840	      0.00004858	      0.00000000	      0.00000000	      0.00000000	      0.00000000	      0.00000000	      0.00000000	      0.00000000	      0.00000000	      0.00000000
    147.51900000	    -55.54830396	   1263.94217238	     -6.04503474	      0.82742754	      0.00000000	     -0.24523651	      0.00001651	     25.33473062	      0.00004948	      0.00000000	      0.00000000	      0.00000000	      0.00000000	      0.00000000	      0.00000000	      0.00000000	      0.00000000	      0.00000000
    147.52000000	    -51.72029348	   1260.11832504	      9.03844976	      0.82438070	      0.00000000	     -0.24491747	      0.00001657	     17.41660782	      0.00005010	      0.00000000	      0.00000000	      0.00000000	      0.00000000	      0.00000000	      0.00000000	      0.00000000	      0.00000000	      0.00000000
    147.52100000	    -45.48366689	   1256.08058815	     21.36433738	      0.82125710	      0.00000000	     -0.24468600	      0.00001651	      8.43255417	      0.00005037	      0.00000000	      0.00000000	      0.00000000	      0.00000000	      0.00000000	      0.00000000	      0.00000000	      0.00000000	      0.00000000
    147.52200000	    -37.05546158	   1251.95133448	     30.30693819	      0.81806670	      0.00000000	     -0.24454895	      0.00001633	     -0.78082516	      0.00005027	      0.00000000	      0.00000000	      0.00000000	      0.00000000	      0.00000000	      0.00000000	      0.00000000	      0.00000000	      0.00000000
